<?xml version="1.0" encoding="UTF-8"?>
<!DOCTYPE svg PUBLIC "-//W3C//DTD SVG 1.1//EN" "http://www.w3.org/Graphics/SVG/1.1/DTD/svg11.dtd">
<!-- Creator: CorelDRAW -->
<svg xmlns="http://www.w3.org/2000/svg" xml:space="preserve" width="119mm" height="63mm" version="1.1" style="shape-rendering:geometricPrecision; text-rendering:geometricPrecision; image-rendering:optimizeQuality; fill-rule:evenodd; clip-rule:evenodd"
viewBox="0 0 11900 6300"
 xmlns:xlink="http://www.w3.org/1999/xlink"
 xmlns:xodm="http://www.corel.com/coreldraw/odm/2003">
 <defs>
  <style type="text/css">
   <![CDATA[
    .fil2 {fill:none;fill-rule:nonzero}
    .fil0 {fill:#004282}
    .fil3 {fill:#CC1C1C}
    .fil1 {fill:#757474;fill-rule:nonzero}
    .fil4 {fill:#CC1C1C;fill-rule:nonzero}
   ]]>
  </style>
   <clipPath id="id0" style="clip-rule:nonzero">
    <path d="M320.13 5594.52l0 -85.46c0,-45.74 13.39,-57.75 61.44,-57.75l98.86 0c45.74,0 61.44,10.62 61.44,57.28l0 85.47c0,43.42 -11.08,54.05 -60.05,54.05l-101.64 0c-46.66,0 -60.05,-11.55 -60.05,-53.59zm298.43 7.85l0 -100.71c0,-90.08 -36.5,-114.1 -115.95,-114.1l-140.91 0c-87.31,0 -118.26,26.33 -118.26,114.1l0 100.71c0,77.61 32.34,109.49 118.26,109.49l140.91 0c89.62,0 115.95,-29.57 115.95,-109.49zm632.45 -1.38c0,38.8 -15.71,47.12 -61.44,47.12l-98.4 0c-43.89,0 -61.9,-9.24 -61.9,-58.21l0 -79.46c0,-50.35 10.62,-59.13 61.9,-59.13l98.4 0c44.35,0 61.44,14.32 61.44,48.04l76.69 0c0,-90.08 -47.58,-111.79 -123.35,-111.79l-127.5 0c-94.24,0 -124.27,26.33 -124.27,120.11l0 91.01c0,85.92 28.18,113.18 116.88,113.18l142.75 0c94.7,0 115.49,-25.41 115.95,-110.87l-77.15 0zm488.78 -209.74l-76.69 0 0 320.61 76.69 0 0 -133.97 198.19 0 0 133.97 76.68 0 0 -320.61 -76.68 0 0 122.89 -198.19 0 0 -122.89zm689.28 203.27l0 -85.46c0,-45.74 13.39,-57.75 61.44,-57.75l98.86 0c45.74,0 61.44,10.62 61.44,57.28l0 85.47c0,43.42 -11.08,54.05 -60.05,54.05l-101.64 0c-46.66,0 -60.05,-11.55 -60.05,-53.59zm298.43 7.85l0 -100.71c0,-90.08 -36.5,-114.1 -115.95,-114.1l-140.91 0c-87.31,0 -118.26,26.33 -118.26,114.1l0 100.71c0,77.61 32.34,109.49 118.26,109.49l140.91 0c89.62,0 115.95,-29.57 115.95,-109.49zm416.25 -150.6l156.15 0c21.25,0 31.87,12.47 31.87,31.88 0,21.25 -10.62,37.42 -31.41,37.42l-156.61 0 0 -69.3zm-76.69 260.09l246.69 0c72.53,0 107.18,-25.41 107.18,-94.24 0,-50.36 -20.33,-64.22 -52.2,-74.84 25.87,-8.32 39.73,-19.4 39.73,-71.14 0,-59.14 -39.27,-80.39 -110.41,-80.39l-230.99 0 0 320.61zm76.69 -133.97l156.61 0c39.73,0 43.88,11.55 43.88,36.03 0,28.18 -5.54,37.42 -46.65,37.42l-153.84 0 0 -73.45zm686.51 133.97l41.58 -80.84 189.86 0 41.12 80.84 90.08 0 -168.61 -320.61 -113.65 0 -170 320.61 89.62 0zm72.53 -141.36l63.29 -119.19 3.69 0 60.98 119.19 -127.96 0zm678.19 -179.25l-76.69 0 0 320.61 76.69 0 0 -133.97 198.19 0 0 133.97 76.68 0 0 -320.61 -76.68 0 0 122.89 -198.19 0 0 -122.89zm851.89 60.52l156.15 0c21.25,0 31.87,12.47 31.87,31.88 0,21.25 -10.62,37.42 -31.41,37.42l-156.61 0 0 -69.3zm-76.69 260.09l246.69 0c72.53,0 107.18,-25.41 107.18,-94.24 0,-50.36 -20.33,-64.22 -52.2,-74.84 25.87,-8.32 39.73,-19.4 39.73,-71.14 0,-59.14 -39.27,-80.39 -110.41,-80.39l-230.99 0 0 320.61zm76.69 -133.97l156.61 0c39.73,0 43.88,11.55 43.88,36.03 0,28.18 -5.54,37.42 -46.65,37.42l-153.84 0 0 -73.45zm3686.63 -186.64l0 320.61 76.69 0 0 -256.86 198.18 0 0 -63.75 -274.87 0zm688.35 203.27l0 -85.46c0,-45.74 13.39,-57.75 61.44,-57.75l98.86 0c45.74,0 61.44,10.62 61.44,57.28l0 85.47c0,43.42 -11.08,54.05 -60.05,54.05l-101.64 0c-46.66,0 -60.05,-11.55 -60.05,-53.59zm298.43 7.85l0 -100.71c0,-90.08 -36.5,-114.1 -115.95,-114.1l-140.91 0c-87.31,0 -118.26,26.33 -118.26,114.1l0 100.71c0,77.61 32.34,109.49 118.26,109.49l140.91 0c89.62,0 115.95,-29.57 115.95,-109.49zm347.42 45.74l-21.72 0 0 140.44 70.22 0 0 -76.69 276.26 0 0 76.69 69.76 0 0 -140.44 -35.57 0 0 -256.86 -320.61 0 0 153.38c0,45.73 -10.16,76.22 -38.34,103.48l0 0zm282.26 0l-196.34 0c18.48,-26.33 26.33,-52.67 26.33,-87.78l0 -105.33 170.01 0 0 193.11zm718.38 -256.86l-101.17 180.63 -107.17 -180.63 -90.55 0 148.29 225.91c3.7,5.54 5.55,10.62 5.55,14.78 0,10.62 -11.09,19.4 -44.35,19.4l-15.25 0 0 60.52 30.03 0c54.97,0 72.53,-8.32 116.42,-79.46l149.21 -241.15 -91.01 0zm-5193.6 135.82l85.46 -66.98 23.56 0 0 251.77 76.69 0 0 -320.61 -127.04 0 -99.32 77.15 40.65 58.67zm846.35 124.27l-79.46 0c-33.72,0 -56.36,-0.92 -56.36,-29.56l-72.07 0c0,61.9 33.27,90.08 115.96,90.08l111.8 0c88.23,0 119.18,-28.18 119.18,-92.86l0 -142.74c0,-61.45 -40.65,-88.7 -118.72,-88.7l-112.26 0c-96.09,0 -118.73,23.56 -118.73,116.41 0,72.53 46.2,91.94 131.2,91.94l59.13 0c56.36,0 71.15,-15.71 82.7,-29.11l0 42.04c0,34.65 -16.17,42.5 -62.37,42.5zm-133.97 -163.07c0,-26.8 10.62,-40.19 57.75,-40.19l79.45 0c47.59,0 59.14,12.93 59.14,40.65 0,28.18 -10.63,46.66 -57.75,46.66l-80.84 0c-48.51,0 -57.75,-15.25 -57.75,-47.12zm958.15 9.24c0,-81.77 -26.33,-106.26 -116.42,-106.26l-115.49 0c-103.48,0 -115.03,50.82 -115.03,118.27l76.69 0c0,-46.2 3.23,-57.75 77.14,-57.75l53.59 0c50.82,0 62.37,9.7 62.37,39.27 0,29.56 -10.63,41.11 -51.74,43.42l-101.64 5.55c-98.86,5.54 -116.41,48.5 -116.41,98.86l0 72.99 346.48 0 0 -60.52 -269.79 0 0 -17.09c0,-20.33 9.7,-27.72 55.43,-30.49l99.79 -6.01c67.91,-4.15 115.03,-32.8 115.03,-100.24zm548.84 153.83l-79.46 0c-33.72,0 -56.36,-0.92 -56.36,-29.56l-72.07 0c0,61.9 33.27,90.08 115.96,90.08l111.8 0c88.23,0 119.18,-28.18 119.18,-92.86l0 -142.74c0,-61.45 -40.65,-88.7 -118.72,-88.7l-112.26 0c-96.09,0 -118.73,23.56 -118.73,116.41 0,72.53 46.2,91.94 131.2,91.94l59.13 0c56.36,0 71.15,-15.71 82.7,-29.11l0 42.04c0,34.65 -16.17,42.5 -62.37,42.5zm-133.97 -163.07c0,-26.8 10.62,-40.19 57.75,-40.19l79.45 0c47.59,0 59.14,12.93 59.14,40.65 0,28.18 -10.63,46.66 -57.75,46.66l-80.84 0c-48.51,0 -57.75,-15.25 -57.75,-47.12z"/>
   </clipPath>
    <clipPath id="id1">
     <path d="M320.13 5594.52l0 -85.46c0,-45.74 13.39,-57.75 61.44,-57.75l98.86 0c45.74,0 61.44,10.62 61.44,57.28l0 85.47c0,43.42 -11.08,54.05 -60.05,54.05l-101.64 0c-46.66,0 -60.05,-11.55 -60.05,-53.59zm298.43 7.85l0 -100.71c0,-90.08 -36.5,-114.1 -115.95,-114.1l-140.91 0c-87.31,0 -118.26,26.33 -118.26,114.1l0 100.71c0,77.61 32.34,109.49 118.26,109.49l140.91 0c89.62,0 115.95,-29.57 115.95,-109.49zm632.45 -1.38c0,38.8 -15.71,47.12 -61.44,47.12l-98.4 0c-43.89,0 -61.9,-9.24 -61.9,-58.21l0 -79.46c0,-50.35 10.62,-59.13 61.9,-59.13l98.4 0c44.35,0 61.44,14.32 61.44,48.04l76.69 0c0,-90.08 -47.58,-111.79 -123.35,-111.79l-127.5 0c-94.24,0 -124.27,26.33 -124.27,120.11l0 91.01c0,85.92 28.18,113.18 116.88,113.18l142.75 0c94.7,0 115.49,-25.41 115.95,-110.87l-77.15 0zm488.78 -209.74l-76.69 0 0 320.61 76.69 0 0 -133.97 198.19 0 0 133.97 76.68 0 0 -320.61 -76.68 0 0 122.89 -198.19 0 0 -122.89zm689.28 203.27l0 -85.46c0,-45.74 13.39,-57.75 61.44,-57.75l98.86 0c45.74,0 61.44,10.62 61.44,57.28l0 85.47c0,43.42 -11.08,54.05 -60.05,54.05l-101.64 0c-46.66,0 -60.05,-11.55 -60.05,-53.59zm298.43 7.85l0 -100.71c0,-90.08 -36.5,-114.1 -115.95,-114.1l-140.91 0c-87.31,0 -118.26,26.33 -118.26,114.1l0 100.71c0,77.61 32.34,109.49 118.26,109.49l140.91 0c89.62,0 115.95,-29.57 115.95,-109.49zm416.25 -150.6l156.15 0c21.25,0 31.87,12.47 31.87,31.88 0,21.25 -10.62,37.42 -31.41,37.42l-156.61 0 0 -69.3zm-76.69 260.09l246.69 0c72.53,0 107.18,-25.41 107.18,-94.24 0,-50.36 -20.33,-64.22 -52.2,-74.84 25.87,-8.32 39.73,-19.4 39.73,-71.14 0,-59.14 -39.27,-80.39 -110.41,-80.39l-230.99 0 0 320.61zm76.69 -133.97l156.61 0c39.73,0 43.88,11.55 43.88,36.03 0,28.18 -5.54,37.42 -46.65,37.42l-153.84 0 0 -73.45zm686.51 133.97l41.58 -80.84 189.86 0 41.12 80.84 90.08 0 -168.61 -320.61 -113.65 0 -170 320.61 89.62 0zm72.53 -141.36l63.29 -119.19 3.69 0 60.98 119.19 -127.96 0zm678.19 -179.25l-76.69 0 0 320.61 76.69 0 0 -133.97 198.19 0 0 133.97 76.68 0 0 -320.61 -76.68 0 0 122.89 -198.19 0 0 -122.89zm851.89 60.52l156.15 0c21.25,0 31.87,12.47 31.87,31.88 0,21.25 -10.62,37.42 -31.41,37.42l-156.61 0 0 -69.3zm-76.69 260.09l246.69 0c72.53,0 107.18,-25.41 107.18,-94.24 0,-50.36 -20.33,-64.22 -52.2,-74.84 25.87,-8.32 39.73,-19.4 39.73,-71.14 0,-59.14 -39.27,-80.39 -110.41,-80.39l-230.99 0 0 320.61zm76.69 -133.97l156.61 0c39.73,0 43.88,11.55 43.88,36.03 0,28.18 -5.54,37.42 -46.65,37.42l-153.84 0 0 -73.45zm3686.63 -186.64l0 320.61 76.69 0 0 -256.86 198.18 0 0 -63.75 -274.87 0zm688.35 203.27l0 -85.46c0,-45.74 13.39,-57.75 61.44,-57.75l98.86 0c45.74,0 61.44,10.62 61.44,57.28l0 85.47c0,43.42 -11.08,54.05 -60.05,54.05l-101.64 0c-46.66,0 -60.05,-11.55 -60.05,-53.59zm298.43 7.85l0 -100.71c0,-90.08 -36.5,-114.1 -115.95,-114.1l-140.91 0c-87.31,0 -118.26,26.33 -118.26,114.1l0 100.71c0,77.61 32.34,109.49 118.26,109.49l140.91 0c89.62,0 115.95,-29.57 115.95,-109.49zm347.42 45.74l-21.72 0 0 140.44 70.22 0 0 -76.69 276.26 0 0 76.69 69.76 0 0 -140.44 -35.57 0 0 -256.86 -320.61 0 0 153.38c0,45.73 -10.16,76.22 -38.34,103.48zm282.26 0l-196.34 0c18.48,-26.33 26.33,-52.67 26.33,-87.78l0 -105.33 170.01 0 0 193.11zm718.38 -256.86l-101.17 180.63 -107.17 -180.63 -90.55 0 148.29 225.91c3.7,5.54 5.55,10.62 5.55,14.78 0,10.62 -11.09,19.4 -44.35,19.4l-15.25 0 0 60.52 30.03 0c54.97,0 72.53,-8.32 116.42,-79.46l149.21 -241.15 -91.01 0zm-5193.6 135.82l85.46 -66.98 23.56 0 0 251.77 76.69 0 0 -320.61 -127.04 0 -99.32 77.15 40.65 58.67zm846.35 124.27l-79.46 0c-33.72,0 -56.36,-0.92 -56.36,-29.56l-72.07 0c0,61.9 33.27,90.08 115.96,90.08l111.8 0c88.23,0 119.18,-28.18 119.18,-92.86l0 -142.74c0,-61.45 -40.65,-88.7 -118.72,-88.7l-112.26 0c-96.09,0 -118.73,23.56 -118.73,116.41 0,72.53 46.2,91.94 131.2,91.94l59.13 0c56.36,0 71.15,-15.71 82.7,-29.11l0 42.04c0,34.65 -16.17,42.5 -62.37,42.5zm-133.97 -163.07c0,-26.8 10.62,-40.19 57.75,-40.19l79.45 0c47.59,0 59.14,12.93 59.14,40.65 0,28.18 -10.63,46.66 -57.75,46.66l-80.84 0c-48.51,0 -57.75,-15.25 -57.75,-47.12zm958.15 9.24c0,-81.77 -26.33,-106.26 -116.42,-106.26l-115.49 0c-103.48,0 -115.03,50.82 -115.03,118.27l76.69 0c0,-46.2 3.23,-57.75 77.14,-57.75l53.59 0c50.82,0 62.37,9.7 62.37,39.27 0,29.56 -10.63,41.11 -51.74,43.42l-101.64 5.55c-98.86,5.54 -116.41,48.5 -116.41,98.86l0 72.99 346.48 0 0 -60.52 -269.79 0 0 -17.09c0,-20.33 9.7,-27.72 55.43,-30.49l99.79 -6.01c67.91,-4.15 115.03,-32.8 115.03,-100.24zm548.84 153.83l-79.46 0c-33.72,0 -56.36,-0.92 -56.36,-29.56l-72.07 0c0,61.9 33.27,90.08 115.96,90.08l111.8 0c88.23,0 119.18,-28.18 119.18,-92.86l0 -142.74c0,-61.45 -40.65,-88.7 -118.72,-88.7l-112.26 0c-96.09,0 -118.73,23.56 -118.73,116.41 0,72.53 46.2,91.94 131.2,91.94l59.13 0c56.36,0 71.15,-15.71 82.7,-29.11l0 42.04c0,34.65 -16.17,42.5 -62.37,42.5zm-133.97 -163.07c0,-26.8 10.62,-40.19 57.75,-40.19l79.45 0c47.59,0 59.14,12.93 59.14,40.65 0,28.18 -10.63,46.66 -57.75,46.66l-80.84 0c-48.51,0 -57.75,-15.25 -57.75,-47.12z"/>
    </clipPath>
    <clipPath id="id2">
     <path d="M320.13 5594.52l0 -85.46c0,-45.74 13.39,-57.75 61.44,-57.75l98.86 0c45.74,0 61.44,10.62 61.44,57.28l0 85.47c0,43.42 -11.08,54.05 -60.05,54.05l-101.64 0c-46.66,0 -60.05,-11.55 -60.05,-53.59zm298.43 7.85l0 -100.71c0,-90.08 -36.5,-114.1 -115.95,-114.1l-140.91 0c-87.31,0 -118.26,26.33 -118.26,114.1l0 100.71c0,77.61 32.34,109.49 118.26,109.49l140.91 0c89.62,0 115.95,-29.57 115.95,-109.49zm632.45 -1.38c0,38.8 -15.71,47.12 -61.44,47.12l-98.4 0c-43.89,0 -61.9,-9.24 -61.9,-58.21l0 -79.46c0,-50.35 10.62,-59.13 61.9,-59.13l98.4 0c44.35,0 61.44,14.32 61.44,48.04l76.69 0c0,-90.08 -47.58,-111.79 -123.35,-111.79l-127.5 0c-94.24,0 -124.27,26.33 -124.27,120.11l0 91.01c0,85.92 28.18,113.18 116.88,113.18l142.75 0c94.7,0 115.49,-25.41 115.95,-110.87l-77.15 0zm488.78 -209.74l-76.69 0 0 320.61 76.69 0 0 -133.97 198.19 0 0 133.97 76.68 0 0 -320.61 -76.68 0 0 122.89 -198.19 0 0 -122.89zm689.28 203.27l0 -85.46c0,-45.74 13.39,-57.75 61.44,-57.75l98.86 0c45.74,0 61.44,10.62 61.44,57.28l0 85.47c0,43.42 -11.08,54.05 -60.05,54.05l-101.64 0c-46.66,0 -60.05,-11.55 -60.05,-53.59zm298.43 7.85l0 -100.71c0,-90.08 -36.5,-114.1 -115.95,-114.1l-140.91 0c-87.31,0 -118.26,26.33 -118.26,114.1l0 100.71c0,77.61 32.34,109.49 118.26,109.49l140.91 0c89.62,0 115.95,-29.57 115.95,-109.49zm416.25 -150.6l156.15 0c21.25,0 31.87,12.47 31.87,31.88 0,21.25 -10.62,37.42 -31.41,37.42l-156.61 0 0 -69.3zm-76.69 260.09l246.69 0c72.53,0 107.18,-25.41 107.18,-94.24 0,-50.36 -20.33,-64.22 -52.2,-74.84 25.87,-8.32 39.73,-19.4 39.73,-71.14 0,-59.14 -39.27,-80.39 -110.41,-80.39l-230.99 0 0 320.61zm76.69 -133.97l156.61 0c39.73,0 43.88,11.55 43.88,36.03 0,28.18 -5.54,37.42 -46.65,37.42l-153.84 0 0 -73.45zm686.51 133.97l41.58 -80.84 189.86 0 41.12 80.84 90.08 0 -168.61 -320.61 -113.65 0 -170 320.61 89.62 0zm72.53 -141.36l63.29 -119.19 3.69 0 60.98 119.19 -127.96 0zm678.19 -179.25l-76.69 0 0 320.61 76.69 0 0 -133.97 198.19 0 0 133.97 76.68 0 0 -320.61 -76.68 0 0 122.89 -198.19 0 0 -122.89zm851.89 60.52l156.15 0c21.25,0 31.87,12.47 31.87,31.88 0,21.25 -10.62,37.42 -31.41,37.42l-156.61 0 0 -69.3zm-76.69 260.09l246.69 0c72.53,0 107.18,-25.41 107.18,-94.24 0,-50.36 -20.33,-64.22 -52.2,-74.84 25.87,-8.32 39.73,-19.4 39.73,-71.14 0,-59.14 -39.27,-80.39 -110.41,-80.39l-230.99 0 0 320.61zm76.69 -133.97l156.61 0c39.73,0 43.88,11.55 43.88,36.03 0,28.18 -5.54,37.42 -46.65,37.42l-153.84 0 0 -73.45zm3686.63 -186.64l0 320.61 76.69 0 0 -256.86 198.18 0 0 -63.75 -274.87 0zm688.35 203.27l0 -85.46c0,-45.74 13.39,-57.75 61.44,-57.75l98.86 0c45.74,0 61.44,10.62 61.44,57.28l0 85.47c0,43.42 -11.08,54.05 -60.05,54.05l-101.64 0c-46.66,0 -60.05,-11.55 -60.05,-53.59zm298.43 7.85l0 -100.71c0,-90.08 -36.5,-114.1 -115.95,-114.1l-140.91 0c-87.31,0 -118.26,26.33 -118.26,114.1l0 100.71c0,77.61 32.34,109.49 118.26,109.49l140.91 0c89.62,0 115.95,-29.57 115.95,-109.49zm347.42 45.74l-21.72 0 0 140.44 70.22 0 0 -76.69 276.26 0 0 76.69 69.76 0 0 -140.44 -35.57 0 0 -256.86 -320.61 0 0 153.38c0,45.73 -10.16,76.22 -38.34,103.48l0 0zm282.26 0l-196.34 0c18.48,-26.33 26.33,-52.67 26.33,-87.78l0 -105.33 170.01 0 0 193.11zm718.38 -256.86l-101.17 180.63 -107.17 -180.63 -90.55 0 148.29 225.91c3.7,5.54 5.55,10.62 5.55,14.78 0,10.62 -11.09,19.4 -44.35,19.4l-15.25 0 0 60.52 30.03 0c54.97,0 72.53,-8.32 116.42,-79.46l149.21 -241.15 -91.01 0zm-5193.6 135.82l85.46 -66.98 23.56 0 0 251.77 76.69 0 0 -320.61 -127.04 0 -99.32 77.15 40.65 58.67zm846.35 124.27l-79.46 0c-33.72,0 -56.36,-0.92 -56.36,-29.56l-72.07 0c0,61.9 33.27,90.08 115.96,90.08l111.8 0c88.23,0 119.18,-28.18 119.18,-92.86l0 -142.74c0,-61.45 -40.65,-88.7 -118.72,-88.7l-112.26 0c-96.09,0 -118.73,23.56 -118.73,116.41 0,72.53 46.2,91.94 131.2,91.94l59.13 0c56.36,0 71.15,-15.71 82.7,-29.11l0 42.04c0,34.65 -16.17,42.5 -62.37,42.5zm-133.97 -163.07c0,-26.8 10.62,-40.19 57.75,-40.19l79.45 0c47.59,0 59.14,12.93 59.14,40.65 0,28.18 -10.63,46.66 -57.75,46.66l-80.84 0c-48.51,0 -57.75,-15.25 -57.75,-47.12zm958.15 9.24c0,-81.77 -26.33,-106.26 -116.42,-106.26l-115.49 0c-103.48,0 -115.03,50.82 -115.03,118.27l76.69 0c0,-46.2 3.23,-57.75 77.14,-57.75l53.59 0c50.82,0 62.37,9.7 62.37,39.27 0,29.56 -10.63,41.11 -51.74,43.42l-101.64 5.55c-98.86,5.54 -116.41,48.5 -116.41,98.86l0 72.99 346.48 0 0 -60.52 -269.79 0 0 -17.09c0,-20.33 9.7,-27.72 55.43,-30.49l99.79 -6.01c67.91,-4.15 115.03,-32.8 115.03,-100.24zm548.84 153.83l-79.46 0c-33.72,0 -56.36,-0.92 -56.36,-29.56l-72.07 0c0,61.9 33.27,90.08 115.96,90.08l111.8 0c88.23,0 119.18,-28.18 119.18,-92.86l0 -142.74c0,-61.45 -40.65,-88.7 -118.72,-88.7l-112.26 0c-96.09,0 -118.73,23.56 -118.73,116.41 0,72.53 46.2,91.94 131.2,91.94l59.13 0c56.36,0 71.15,-15.71 82.7,-29.11l0 42.04c0,34.65 -16.17,42.5 -62.37,42.5zm-133.97 -163.07c0,-26.8 10.62,-40.19 57.75,-40.19l79.45 0c47.59,0 59.14,12.93 59.14,40.65 0,28.18 -10.63,46.66 -57.75,46.66l-80.84 0c-48.51,0 -57.75,-15.25 -57.75,-47.12z"/>
    </clipPath>
 </defs>
 <g id="Слой_x0020_1">
  <metadata id="CorelCorpID_0Corel-Layer"/>
  <path class="fil0" d="M810.37 4829.19l0 -1857.77c0,-48.5 39.55,-88.05 88.04,-88.05l1017 0c48.49,0 88.05,39.79 88.05,88.05l0 327.6c0,48.25 -39.79,88.04 -88.05,88.04l-698.03 0c-48.25,0 -88.04,39.79 -88.04,88.05l0 402.58c0,48.26 39.55,88.05 88.04,88.05l698.03 0.04c48.49,0 88.03,39.61 88.03,88.06 0,243.2 -0.3,531.9 -0.3,775.33 0,48.45 39.56,88.06 88.05,88.06l390.82 0c48.49,0 88.04,-39.55 88.04,-88.04 0.02,-749.21 0.26,-1498.22 0.33,-2247.55l0 -38.11 0 -38.1 0 -18.41 0 -95.9c0,-48.49 -39.56,-88.05 -88.05,-88.05 -716.95,0 -1433.88,0 -2150.84,0 -48.49,0 -88.05,39.56 -88.05,88.05l0 2438.07c0,48.49 39.56,88.04 88.05,88.04l390.83 0c48.49,0 88.05,-39.55 88.05,-88.04zm8424.86 -2452.71l0 2462.16c0,20.3 7.28,37.83 21.71,52.12 14.44,14.3 32,21.28 52.3,21.28l2148.5 -0.22c48.45,0 88.05,-39.56 88.05,-88.05 0,-231.71 0,-482.05 0,-713.79 0,-48.48 -39.56,-88.04 -88.05,-88.04l-403.44 0c-48.49,0 -88.05,39.56 -88.05,88.04l0 137.35c0,48.44 -39.48,87.99 -87.93,88.04l-959.6 1.22c-24.27,0.03 -45.16,-8.6 -62.33,-25.74 -17.17,-17.15 -25.83,-38.04 -25.83,-62.31l0 -1280.71c0,-48.48 39.55,-88.04 88.05,-88.04l959.59 0c48.5,0 88.05,39.56 88.05,88.04l0 93.28c0,48.49 39.56,88.05 88.05,88.05l403.44 0c48.49,0 88.05,-39.56 88.05,-88.05l0 -664.43c0,-48.39 -39.38,-87.92 -87.76,-88.05l-2149.21 -5.55c-20.25,-0.06 -37.7,7.14 -52.02,21.43 -14.33,14.3 -21.57,31.74 -21.57,51.97zm-865.41 5.84l0 1105.41c0,40.41 -32.98,73.39 -73.39,73.39l-1027.87 0c-40.41,0 -73.4,-33.04 -73.4,-73.39l0 -233.25c0,-40.35 -32.98,-73.4 -73.39,-73.4l-418.17 0c-40.41,0 -73.39,32.97 -73.39,73.4 0,246.54 0,493.07 0,739.61 0,40.42 32.97,73.4 73.39,73.4 236.29,0 1356.54,0 1592.83,0 40.42,0 73.39,32.97 73.39,73.39l0 132.68c0,40.4 -32.98,73.39 -73.39,73.39l-1592.83 0c-40.41,0 -73.39,32.98 -73.39,73.4l0 1.24 0 416.92c0,40.41 32.97,73.4 73.39,73.4 424.61,0 1733.17,0 2157.79,0 40.42,0 73.4,-32.98 73.4,-73.4 0,-818.73 0,-1637.46 0,-2456.19 0,-40.41 -32.98,-73.4 -73.4,-73.4l-418.17 0c-40.41,0 -73.4,32.99 -73.4,73.4zm-675.37 -73.4c-717.57,0 -1410.92,0 -2128.48,0 -48.5,0 -88.05,39.56 -88.05,88.05 0,812.69 0,1613.98 0,2426.68 0,48.5 39.55,88.06 88.05,88.06l402.53 0c48.49,0 88.05,-39.56 88.05,-88.06l0 -1810.61c0,-48.5 39.55,-88.05 88.04,-88.05l1549.86 0c48.49,0 88.05,-39.55 88.05,-88.05l0 -439.97c0,-48.49 -39.56,-88.05 -88.05,-88.05zm-4745.14 2608.31l402.52 0c48.49,0 88.05,-39.55 88.05,-88.04l0 -189.37c0,-48.49 39.55,-88.05 88.04,-88.05 518.61,0 1037.21,-0.04 1555.86,-0.04 48.48,0 88.04,-39.55 88.04,-88.04l0 -2072.57c0,-48.49 -39.56,-88.05 -88.04,-88.05 -711.51,0 -1422.96,0 -2134.47,0 -48.49,0 -88.05,39.56 -88.05,88.05l0 95.9 0 1103.12c0,48.49 39.56,88.05 88.05,88.05l402.52 0c48.49,0 88.05,-39.56 88.05,-88.05l0 -576.46c0,-48.49 39.55,-88.04 88.04,-88.04l1053.77 0c48.49,0 88.05,39.55 88.05,88.04l0 871.33c0,48.49 -39.56,88.05 -88.05,88.05l-1632.38 0c-48.5,0 -88.06,39.55 -88.05,88.06 0,256.02 0,512.03 0,768.05 -0.01,48.51 39.55,88.06 88.05,88.06z"/>
  <path class="fil1" d="M320.13 5594.52l0 -85.46c0,-45.74 13.39,-57.75 61.44,-57.75l98.86 0c45.74,0 61.44,10.62 61.44,57.28l0 85.47c0,43.42 -11.08,54.05 -60.05,54.05l-101.64 0c-46.66,0 -60.05,-11.55 -60.05,-53.59zm298.43 7.85l0 -100.71c0,-90.08 -36.5,-114.1 -115.95,-114.1l-140.91 0c-87.31,0 -118.26,26.33 -118.26,114.1l0 100.71c0,77.61 32.34,109.49 118.26,109.49l140.91 0c89.62,0 115.95,-29.57 115.95,-109.49zm632.45 -1.38c0,38.8 -15.71,47.12 -61.44,47.12l-98.4 0c-43.89,0 -61.9,-9.24 -61.9,-58.21l0 -79.46c0,-50.35 10.62,-59.13 61.9,-59.13l98.4 0c44.35,0 61.44,14.32 61.44,48.04l76.69 0c0,-90.08 -47.58,-111.79 -123.35,-111.79l-127.5 0c-94.24,0 -124.27,26.33 -124.27,120.11l0 91.01c0,85.92 28.18,113.18 116.88,113.18l142.75 0c94.7,0 115.49,-25.41 115.95,-110.87l-77.15 0zm488.78 -209.74l-76.69 0 0 320.61 76.69 0 0 -133.97 198.19 0 0 133.97 76.68 0 0 -320.61 -76.68 0 0 122.89 -198.19 0 0 -122.89zm689.28 203.27l0 -85.46c0,-45.74 13.39,-57.75 61.44,-57.75l98.86 0c45.74,0 61.44,10.62 61.44,57.28l0 85.47c0,43.42 -11.08,54.05 -60.05,54.05l-101.64 0c-46.66,0 -60.05,-11.55 -60.05,-53.59zm298.43 7.85l0 -100.71c0,-90.08 -36.5,-114.1 -115.95,-114.1l-140.91 0c-87.31,0 -118.26,26.33 -118.26,114.1l0 100.71c0,77.61 32.34,109.49 118.26,109.49l140.91 0c89.62,0 115.95,-29.57 115.95,-109.49zm416.25 -150.6l156.15 0c21.25,0 31.87,12.47 31.87,31.88 0,21.25 -10.62,37.42 -31.41,37.42l-156.61 0 0 -69.3zm-76.69 260.09l246.69 0c72.53,0 107.18,-25.41 107.18,-94.24 0,-50.36 -20.33,-64.22 -52.2,-74.84 25.87,-8.32 39.73,-19.4 39.73,-71.14 0,-59.14 -39.27,-80.39 -110.41,-80.39l-230.99 0 0 320.61zm76.69 -133.97l156.61 0c39.73,0 43.88,11.55 43.88,36.03 0,28.18 -5.54,37.42 -46.65,37.42l-153.84 0 0 -73.45zm686.51 133.97l41.58 -80.84 189.86 0 41.12 80.84 90.08 0 -168.61 -320.61 -113.65 0 -170 320.61 89.62 0zm72.53 -141.36l63.29 -119.19 3.69 0 60.98 119.19 -127.96 0zm678.19 -179.25l-76.69 0 0 320.61 76.69 0 0 -133.97 198.19 0 0 133.97 76.68 0 0 -320.61 -76.68 0 0 122.89 -198.19 0 0 -122.89zm851.89 60.52l156.15 0c21.25,0 31.87,12.47 31.87,31.88 0,21.25 -10.62,37.42 -31.41,37.42l-156.61 0 0 -69.3zm-76.69 260.09l246.69 0c72.53,0 107.18,-25.41 107.18,-94.24 0,-50.36 -20.33,-64.22 -52.2,-74.84 25.87,-8.32 39.73,-19.4 39.73,-71.14 0,-59.14 -39.27,-80.39 -110.41,-80.39l-230.99 0 0 320.61zm76.69 -133.97l156.61 0c39.73,0 43.88,11.55 43.88,36.03 0,28.18 -5.54,37.42 -46.65,37.42l-153.84 0 0 -73.45zm3686.63 -186.64l0 320.61 76.69 0 0 -256.86 198.18 0 0 -63.75 -274.87 0zm688.35 203.27l0 -85.46c0,-45.74 13.39,-57.75 61.44,-57.75l98.86 0c45.74,0 61.44,10.62 61.44,57.28l0 85.47c0,43.42 -11.08,54.05 -60.05,54.05l-101.64 0c-46.66,0 -60.05,-11.55 -60.05,-53.59zm298.43 7.85l0 -100.71c0,-90.08 -36.5,-114.1 -115.95,-114.1l-140.91 0c-87.31,0 -118.26,26.33 -118.26,114.1l0 100.71c0,77.61 32.34,109.49 118.26,109.49l140.91 0c89.62,0 115.95,-29.57 115.95,-109.49zm347.42 45.74l-21.72 0 0 140.44 70.22 0 0 -76.69 276.26 0 0 76.69 69.76 0 0 -140.44 -35.57 0 0 -256.86 -320.61 0 0 153.38c0,45.73 -10.16,76.22 -38.34,103.48l0 0zm282.26 0l-196.34 0c18.48,-26.33 26.33,-52.67 26.33,-87.78l0 -105.33 170.01 0 0 193.11zm718.38 -256.86l-101.17 180.63 -107.17 -180.63 -90.55 0 148.29 225.91c3.7,5.54 5.55,10.62 5.55,14.78 0,10.62 -11.09,19.4 -44.35,19.4l-15.25 0 0 60.52 30.03 0c54.97,0 72.53,-8.32 116.42,-79.46l149.21 -241.15 -91.01 0zm-5193.6 135.82l85.46 -66.98 23.56 0 0 251.77 76.69 0 0 -320.61 -127.04 0 -99.32 77.15 40.65 58.67zm846.35 124.27l-79.46 0c-33.72,0 -56.36,-0.92 -56.36,-29.56l-72.07 0c0,61.9 33.27,90.08 115.96,90.08l111.8 0c88.23,0 119.18,-28.18 119.18,-92.86l0 -142.74c0,-61.45 -40.65,-88.7 -118.72,-88.7l-112.26 0c-96.09,0 -118.73,23.56 -118.73,116.41 0,72.53 46.2,91.94 131.2,91.94l59.13 0c56.36,0 71.15,-15.71 82.7,-29.11l0 42.04c0,34.65 -16.17,42.5 -62.37,42.5zm-133.97 -163.07c0,-26.8 10.62,-40.19 57.75,-40.19l79.45 0c47.59,0 59.14,12.93 59.14,40.65 0,28.18 -10.63,46.66 -57.75,46.66l-80.84 0c-48.51,0 -57.75,-15.25 -57.75,-47.12zm958.15 9.24c0,-81.77 -26.33,-106.26 -116.42,-106.26l-115.49 0c-103.48,0 -115.03,50.82 -115.03,118.27l76.69 0c0,-46.2 3.23,-57.75 77.14,-57.75l53.59 0c50.82,0 62.37,9.7 62.37,39.27 0,29.56 -10.63,41.11 -51.74,43.42l-101.64 5.55c-98.86,5.54 -116.41,48.5 -116.41,98.86l0 72.99 346.48 0 0 -60.52 -269.79 0 0 -17.09c0,-20.33 9.7,-27.72 55.43,-30.49l99.79 -6.01c67.91,-4.15 115.03,-32.8 115.03,-100.24zm548.84 153.83l-79.46 0c-33.72,0 -56.36,-0.92 -56.36,-29.56l-72.07 0c0,61.9 33.27,90.08 115.96,90.08l111.8 0c88.23,0 119.18,-28.18 119.18,-92.86l0 -142.74c0,-61.45 -40.65,-88.7 -118.72,-88.7l-112.26 0c-96.09,0 -118.73,23.56 -118.73,116.41 0,72.53 46.2,91.94 131.2,91.94l59.13 0c56.36,0 71.15,-15.71 82.7,-29.11l0 42.04c0,34.65 -16.17,42.5 -62.37,42.5zm-133.97 -163.07c0,-26.8 10.62,-40.19 57.75,-40.19l79.45 0c47.59,0 59.14,12.93 59.14,40.65 0,28.18 -10.63,46.66 -57.75,46.66l-80.84 0c-48.51,0 -57.75,-15.25 -57.75,-47.12z"/>
  <g style="clip-path:url(#id0)">
   <g id="_2416524268400">
   </g>
   <g style="clip-path:url(#id1)">
    <image id="Metal-Backgrounds-HD-010.jpg" x="-264.23" y="5177.84" width="12317.26" height="820.44" xlink:href="логотип Аргус с отблеском 16 версия_Images\логотип Аргус с отблеском 16 версия_ImgID1.png"/>
   </g>
   <g style="clip-path:url(#id2)">
   </g>
  </g>
  <path class="fil2" d="M320.13 5594.52l0 -85.46c0,-45.74 13.39,-57.75 61.44,-57.75l98.86 0c45.74,0 61.44,10.62 61.44,57.28l0 85.47c0,43.42 -11.08,54.05 -60.05,54.05l-101.64 0c-46.66,0 -60.05,-11.55 -60.05,-53.59zm298.43 7.85l0 -100.71c0,-90.08 -36.5,-114.1 -115.95,-114.1l-140.91 0c-87.31,0 -118.26,26.33 -118.26,114.1l0 100.71c0,77.61 32.34,109.49 118.26,109.49l140.91 0c89.62,0 115.95,-29.57 115.95,-109.49zm632.45 -1.38c0,38.8 -15.71,47.12 -61.44,47.12l-98.4 0c-43.89,0 -61.9,-9.24 -61.9,-58.21l0 -79.46c0,-50.35 10.62,-59.13 61.9,-59.13l98.4 0c44.35,0 61.44,14.32 61.44,48.04l76.69 0c0,-90.08 -47.58,-111.79 -123.35,-111.79l-127.5 0c-94.24,0 -124.27,26.33 -124.27,120.11l0 91.01c0,85.92 28.18,113.18 116.88,113.18l142.75 0c94.7,0 115.49,-25.41 115.95,-110.87l-77.15 0zm488.78 -209.74l-76.69 0 0 320.61 76.69 0 0 -133.97 198.19 0 0 133.97 76.68 0 0 -320.61 -76.68 0 0 122.89 -198.19 0 0 -122.89zm689.28 203.27l0 -85.46c0,-45.74 13.39,-57.75 61.44,-57.75l98.86 0c45.74,0 61.44,10.62 61.44,57.28l0 85.47c0,43.42 -11.08,54.05 -60.05,54.05l-101.64 0c-46.66,0 -60.05,-11.55 -60.05,-53.59zm298.43 7.85l0 -100.71c0,-90.08 -36.5,-114.1 -115.95,-114.1l-140.91 0c-87.31,0 -118.26,26.33 -118.26,114.1l0 100.71c0,77.61 32.34,109.49 118.26,109.49l140.91 0c89.62,0 115.95,-29.57 115.95,-109.49zm416.25 -150.6l156.15 0c21.25,0 31.87,12.47 31.87,31.88 0,21.25 -10.62,37.42 -31.41,37.42l-156.61 0 0 -69.3zm-76.69 260.09l246.69 0c72.53,0 107.18,-25.41 107.18,-94.24 0,-50.36 -20.33,-64.22 -52.2,-74.84 25.87,-8.32 39.73,-19.4 39.73,-71.14 0,-59.14 -39.27,-80.39 -110.41,-80.39l-230.99 0 0 320.61zm76.69 -133.97l156.61 0c39.73,0 43.88,11.55 43.88,36.03 0,28.18 -5.54,37.42 -46.65,37.42l-153.84 0 0 -73.45zm686.51 133.97l41.58 -80.84 189.86 0 41.12 80.84 90.08 0 -168.61 -320.61 -113.65 0 -170 320.61 89.62 0zm72.53 -141.36l63.29 -119.19 3.69 0 60.98 119.19 -127.96 0zm678.19 -179.25l-76.69 0 0 320.61 76.69 0 0 -133.97 198.19 0 0 133.97 76.68 0 0 -320.61 -76.68 0 0 122.89 -198.19 0 0 -122.89zm851.89 60.52l156.15 0c21.25,0 31.87,12.47 31.87,31.88 0,21.25 -10.62,37.42 -31.41,37.42l-156.61 0 0 -69.3zm-76.69 260.09l246.69 0c72.53,0 107.18,-25.41 107.18,-94.24 0,-50.36 -20.33,-64.22 -52.2,-74.84 25.87,-8.32 39.73,-19.4 39.73,-71.14 0,-59.14 -39.27,-80.39 -110.41,-80.39l-230.99 0 0 320.61zm76.69 -133.97l156.61 0c39.73,0 43.88,11.55 43.88,36.03 0,28.18 -5.54,37.42 -46.65,37.42l-153.84 0 0 -73.45zm3686.63 -186.64l0 320.61 76.69 0 0 -256.86 198.18 0 0 -63.75 -274.87 0zm688.35 203.27l0 -85.46c0,-45.74 13.39,-57.75 61.44,-57.75l98.86 0c45.74,0 61.44,10.62 61.44,57.28l0 85.47c0,43.42 -11.08,54.05 -60.05,54.05l-101.64 0c-46.66,0 -60.05,-11.55 -60.05,-53.59zm298.43 7.85l0 -100.71c0,-90.08 -36.5,-114.1 -115.95,-114.1l-140.91 0c-87.31,0 -118.26,26.33 -118.26,114.1l0 100.71c0,77.61 32.34,109.49 118.26,109.49l140.91 0c89.62,0 115.95,-29.57 115.95,-109.49zm347.42 45.74l-21.72 0 0 140.44 70.22 0 0 -76.69 276.26 0 0 76.69 69.76 0 0 -140.44 -35.57 0 0 -256.86 -320.61 0 0 153.38c0,45.73 -10.16,76.22 -38.34,103.48l0 0zm282.26 0l-196.34 0c18.48,-26.33 26.33,-52.67 26.33,-87.78l0 -105.33 170.01 0 0 193.11zm718.38 -256.86l-101.17 180.63 -107.17 -180.63 -90.55 0 148.29 225.91c3.7,5.54 5.55,10.62 5.55,14.78 0,10.62 -11.09,19.4 -44.35,19.4l-15.25 0 0 60.52 30.03 0c54.97,0 72.53,-8.32 116.42,-79.46l149.21 -241.15 -91.01 0zm-5193.6 135.82l85.46 -66.98 23.56 0 0 251.77 76.69 0 0 -320.61 -127.04 0 -99.32 77.15 40.65 58.67zm846.35 124.27l-79.46 0c-33.72,0 -56.36,-0.92 -56.36,-29.56l-72.07 0c0,61.9 33.27,90.08 115.96,90.08l111.8 0c88.23,0 119.18,-28.18 119.18,-92.86l0 -142.74c0,-61.45 -40.65,-88.7 -118.72,-88.7l-112.26 0c-96.09,0 -118.73,23.56 -118.73,116.41 0,72.53 46.2,91.94 131.2,91.94l59.13 0c56.36,0 71.15,-15.71 82.7,-29.11l0 42.04c0,34.65 -16.17,42.5 -62.37,42.5zm-133.97 -163.07c0,-26.8 10.62,-40.19 57.75,-40.19l79.45 0c47.59,0 59.14,12.93 59.14,40.65 0,28.18 -10.63,46.66 -57.75,46.66l-80.84 0c-48.51,0 -57.75,-15.25 -57.75,-47.12zm958.15 9.24c0,-81.77 -26.33,-106.26 -116.42,-106.26l-115.49 0c-103.48,0 -115.03,50.82 -115.03,118.27l76.69 0c0,-46.2 3.23,-57.75 77.14,-57.75l53.59 0c50.82,0 62.37,9.7 62.37,39.27 0,29.56 -10.63,41.11 -51.74,43.42l-101.64 5.55c-98.86,5.54 -116.41,48.5 -116.41,98.86l0 72.99 346.48 0 0 -60.52 -269.79 0 0 -17.09c0,-20.33 9.7,-27.72 55.43,-30.49l99.79 -6.01c67.91,-4.15 115.03,-32.8 115.03,-100.24zm548.84 153.83l-79.46 0c-33.72,0 -56.36,-0.92 -56.36,-29.56l-72.07 0c0,61.9 33.27,90.08 115.96,90.08l111.8 0c88.23,0 119.18,-28.18 119.18,-92.86l0 -142.74c0,-61.45 -40.65,-88.7 -118.72,-88.7l-112.26 0c-96.09,0 -118.73,23.56 -118.73,116.41 0,72.53 46.2,91.94 131.2,91.94l59.13 0c56.36,0 71.15,-15.71 82.7,-29.11l0 42.04c0,34.65 -16.17,42.5 -62.37,42.5zm-133.97 -163.07c0,-26.8 10.62,-40.19 57.75,-40.19l79.45 0c47.59,0 59.14,12.93 59.14,40.65 0,28.18 -10.63,46.66 -57.75,46.66l-80.84 0c-48.51,0 -57.75,-15.25 -57.75,-47.12z"/>
  <path class="fil3" d="M11428.09 1511.89l0 -754.05c0,-52.01 -42.41,-94.43 -94.43,-94.43l-10878.1 0c-52.01,0 -94.43,42.42 -94.43,94.43l0 754.05c0,52.01 42.42,94.43 94.43,94.43l2793.33 0 0 117.69 -2911.02 0c-52.01,0 -94.43,-42.41 -94.43,-94.43 0,-329.81 0,-659.62 0,-989.43 0,-52.02 42.41,-94.43 94.43,-94.43l11113.49 0c52.01,0 94.43,42.41 94.43,94.43l0 989.43c0,51.28 -41.22,93.23 -92.23,94.4l-2.2 0.03 -0.23 0 -23.04 0 -2910.31 0 0 -117.69 2815.88 0c52.02,0 94.43,-42.42 94.43,-94.43z"/>
  <g id="_2416524256160">
   <path class="fil4" d="M3100.85 1724.01l331.11 0c147.34,0 210.23,-56.6 210.23,-189.56 0,-70.07 -37.73,-105.12 -95.24,-125.77 50.32,-20.67 83.56,-53.01 83.56,-132.07 0,-126.68 -64.74,-176.09 -230.89,-176.09l-298.77 0 0 117.69 308.65 0c42.23,0 71.88,17.07 71.88,64.69 0,56.6 -30.61,72.77 -71.88,72.77l-308.65 0 0 108.71 291.58 0c85.35,0 100.62,26.95 100.62,71.87 0,50.31 -30.6,70.07 -96.12,70.07l-296.08 0 0 117.69z"/>
   <path class="fil4" d="M6339.05 1100.52l0 123.99 260.54 0 0 499.5 149.14 0 0 -499.5 263.23 0 0 -123.99 -672.91 0zm734 0l0 623.49 149.14 0 0 -499.5 385.41 0 0 499.5 149.14 0 0 -623.49 -683.69 0zm910.08 623.49l80.86 -157.22 369.24 0 79.96 157.22 175.19 0 -327.92 -623.49 -221.01 0 -330.61 623.49 174.29 0zm141.05 -274.9l123.08 -231.8 7.19 0 118.59 231.8 -248.86 0z"/>
   <path class="fil3" d="M5516.04 1628.06l0 200.92 100.46 0 0 -109.71 395.23 0 0 109.71 99.79 0 0 -200.92 -50.89 0 0 -367.47 -458.67 0 0 219.42c0,65.44 -14.54,109.05 -54.86,148.05l-31.06 0zm-1573.96 4.62c-58.79,0 -66.75,-13.21 -66.75,-53.53 0,-35.03 5.94,-51.55 62.78,-51.55l209.53 0 0 105.08 -205.56 0zm197.34 -379.53c22.72,0 41.92,2.28 57.41,6.66 15.49,4.38 28.27,12.22 38.14,23.33 9.88,11.11 17.03,26.17 21.48,45.19 4.45,19.01 6.67,42.83 6.67,71.47l0 328.13 -375.97 0c-15.71,0 -30.29,-3.75 -43.33,-11.12 -13.04,-7.36 -24.45,-17.66 -34.07,-30.74 -9.63,-13.07 -17.08,-28.67 -22.23,-46.66 -5.13,-17.98 -7.77,-37.65 -7.77,-58.88 0,-20.74 2.64,-40.29 7.77,-58.51 5.15,-18.23 12.64,-34.24 22.23,-47.78 9.58,-13.54 21.03,-24.24 34.07,-31.85 13.04,-7.61 27.53,-11.48 43.33,-11.48l261.16 0 0 -40.73c0,-24.7 -3.41,-19.54 -10,-27.86 -6.59,-8.32 -18.29,-12.59 -34.44,-12.59l-295.09 0 0 -96.58 330.64 0zm1811.5 374.91l-280.88 0c26.43,-37.67 37.67,-75.35 37.67,-125.58l0 -150.68 243.21 0 0 276.26zm-683.39 0l-145.39 0c-66.75,0 -85.92,-16.52 -85.92,-76.67l0 -122.27c0,-65.42 19.17,-82.61 87.9,-82.61l141.44 0c65.42,0 87.9,15.2 87.9,81.95l0 122.27c0,62.13 -15.87,77.33 -85.93,77.33zm-341.03 -65.43c0,111.03 46.27,156.64 169.2,156.64l201.58 0c128.22,0 165.89,-42.3 165.89,-156.64l0 -144.08c0,-128.88 -52.22,-163.25 -165.89,-163.25l-201.58 0c-124.91,0 -169.2,37.67 -169.2,163.25l0 144.08zm-582.26 -302.04l0 458.68 352.93 0c103.76,0 153.34,-36.36 153.34,-134.83 0,-72.04 -29.09,-91.87 -74.69,-107.07 37.01,-11.9 56.84,-27.76 56.84,-101.78 0,-84.6 -56.18,-115 -157.96,-115l-330.46 0zm329.8 372.09l-220.08 0 0 -105.08 224.05 0c56.84,0 62.78,16.52 62.78,51.55 0,40.32 -7.93,53.53 -66.75,53.53zm48.91 -239.91c0,30.4 -15.2,53.54 -44.94,53.54l-224.05 0 0 -99.14 223.38 0c30.41,0 45.61,17.85 45.61,45.6z"/>
  </g>
 </g>
</svg>
